Coordinates
version=1
nRows=9
nColumns=63
inDegrees=yes

Units are S.I. units (second, meters, Newtons, ...)
If the header above contains a line with 'inDegrees', this indicates whether rotational values are in degrees (yes) or radians (no).

endheader
time	pelvis_tilt	pelvis_list	pelvis_rotation	pelvis_tx	pelvis_ty	pelvis_tz	hip_flexion_r	hip_adduction_r	hip_rotation_r	knee_angle_r	knee_angle_r_beta	ankle_angle_r	subtalar_angle_r	mtp_angle_r	hip_flexion_l	hip_adduction_l	hip_rotation_l	knee_angle_l	knee_angle_l_beta	ankle_angle_l	subtalar_angle_l	mtp_angle_l	L5_S1_Flex_Ext	L5_S1_Lat_Bending	L5_S1_axial_rotation	L4_L5_Flex_Ext	L4_L5_Lat_Bending	L4_L5_axial_rotation	L3_L4_Flex_Ext	L3_L4_Lat_Bending	L3_L4_axial_rotation	L2_L3_Flex_Ext	L2_L3_Lat_Bending	L2_L3_axial_rotation	L1_L2_Flex_Ext	L1_L2_Lat_Bending	L1_L2_axial_rotation	L1_T12_Flex_Ext	L1_T12_Lat_Bending	L1_T12_axial_rotation	Abs_r3	Abs_r2	Abs_r1	Abs_t1	Abs_t2	neck_flexion	neck_bending	neck_rotation	arm_flex_r	arm_add_r	arm_rot_r	elbow_flex_r	pro_sup_r	wrist_flex_r	wrist_dev_r	arm_flex_l	arm_add_l	arm_rot_l	elbow_flex_l	pro_sup_l	wrist_flex_l	wrist_dev_l
      5.46341463	     -2.23407659	     -3.73098084	    103.12303187	      0.19617496	      1.12052220	      0.41567316	     -1.29687463	     -0.51488869	      4.43250756	      0.75289926	      0.01314057	     18.77933024	     -4.56896037	      0.00000000	      4.73665121	     -0.17765274	      1.87599677	     11.31416761	      0.19746948	     18.19311314	      3.41940635	      0.00000000	      0.00157264	     -1.07812665	     -0.88705440	      0.00292054	     -1.43390844	     -0.94249530	      0.00258368	     -2.62135713	     -0.94249530	      0.00179736	     -2.62135713	     -0.77617260	      0.00146035	     -2.19851586	     -0.72073170	      0.00089860	     -1.67001817	     -0.66529080	      0.01123318	    -12.19598424	     -4.93353048	      0.00000000	      0.00000000	      1.37793790	      2.89977609	    -19.62934668	      6.71347020	    -13.22024244	    -11.77061733	     95.91279858	     87.97019844	    -11.94292463	     21.00921062	      7.29125729	    -18.70619986	    126.74482664	      2.84235600	      1.59793052	    -14.53473038	    -23.44731405
      5.48780488	     -2.16771987	     -4.01100396	    103.54924081	      0.19583498	      1.12101350	      0.41740498	     -0.84980379	     -0.56354737	      3.43754975	      0.81628345	      0.01424683	     19.00733516	     -3.26114277	      0.00000000	      5.19864802	     -0.15457198	      1.99879633	     11.35587169	      0.19819735	     17.92642496	      3.71014744	      0.00000000	     -0.01874416	     -1.17501580	     -1.09924829	     -0.03480977	     -1.56277101	     -1.16795131	     -0.03079478	     -2.85693341	     -1.16795131	     -0.02142270	     -2.85693341	     -0.96184226	     -0.01740582	     -2.39609221	     -0.89313924	     -0.01071041	     -1.82009947	     -0.82443622	     -0.13388764	    -13.29201369	     -6.11368922	      0.00000000	      0.00000000	      0.34262464	      4.22931439	    -21.13024776	     10.60588579	    -12.84691867	    -16.50723917	    104.55275147	     87.25079675	    -11.10332916	     19.86924308	      6.67784599	    -19.74449119	    128.19429692	      2.69823716	      1.77298378	    -15.61729518	    -22.85079811
      5.51219512	     -2.13421907	     -4.30841316	    104.00285655	      0.19584963	      1.12135051	      0.41882141	     -0.41521117	     -0.62556160	      3.00714412	      0.85983557	      0.01500696	     19.14247215	     -2.76019895	      0.00000000	      5.66802454	     -0.12728567	      2.02972818	     11.40821642	      0.19911094	     17.79472393	      4.18789954	      0.00000000	     -0.05146769	     -1.28345325	     -1.23255259	     -0.09558065	     -1.70699282	     -1.30958713	     -0.08455627	     -3.12058822	     -1.30958713	     -0.05882242	     -3.12058822	     -1.07848352	     -0.04779290	     -2.61721786	     -1.00144898	     -0.02940864	     -1.98806908	     -0.92441444	     -0.36762857	    -14.51867981	     -6.85508775	      0.00000000	      0.00000000	     -0.72483833	      5.65515943	    -23.45288448	     15.42228746	    -13.18473211	    -19.99032773	    111.34922415	     85.64966920	    -10.02662452	     16.34492527	      6.18907083	    -20.79805339	    129.28345418	      2.87039357	      2.25949784	    -15.54283022	    -21.40912818
      5.53658537	     -2.14470588	     -4.58660018	    104.03659937	      0.19632902	      1.12169260	      0.41956744	      0.01134826	     -0.74404336	      2.20390404	      0.92216125	      0.01609475	     19.52207129	     -1.02903216	      0.00000000	      5.98959678	     -0.16728097	      0.88011093	     11.33234818	      0.19778679	     17.89657980	      5.71678729	      0.00000000	     -0.08874067	     -1.39279821	     -1.19692644	     -0.16480029	     -1.85242162	     -1.27173434	     -0.14579204	     -3.38644957	     -1.27173434	     -0.10142171	     -3.38644957	     -1.04731064	     -0.08240458	     -2.84019411	     -0.97250273	     -0.05070642	     -2.15744443	     -0.89769483	     -0.63386570	    -15.75561192	     -6.65694579	      0.00000000	      0.00000000	     -2.18439335	      6.77556971	    -26.50171868	     20.87292952	    -14.60273068	    -22.77627484	    116.14209390	     83.32548800	     -5.35256900	     11.46466981	      6.00764550	    -21.63867719	    131.29973257	      3.05362472	      2.44063813	    -14.30531954	    -18.67041783
      5.56097561	     -2.26773417	     -4.87957925	    103.94528520	      0.19727868	      1.12210545	      0.41990948	      0.41988143	     -0.93719859	      1.99961594	      0.96382937	      0.01682200	     19.80171940	     -0.08597550	      0.00000000	      6.23615961	     -0.08714026	     -0.05332564	     11.15638154	      0.19471559	     17.98295944	      6.78053596	      0.00000000	     -0.12608106	     -1.52038197	     -1.11398504	     -0.23414514	     -2.02210802	     -1.18360910	     -0.20713857	     -3.69665672	     -1.18360910	     -0.14409804	     -3.69665672	     -0.97473691	     -0.11707887	     -3.10036291	     -0.90511284	     -0.07204272	     -2.35507167	     -0.83548878	     -0.90058440	    -17.19886493	     -6.19565058	      0.00000000	      0.00000000	     -3.73753233	      7.96705047	    -29.62319867	     26.73525394	    -17.17740348	    -23.93918577	    118.82362325	     83.46409001	     -1.60469288	      7.58569067	      6.00931344	    -22.59878718	    130.80269828	      3.66402944	      2.83029347	    -11.98663044	    -16.48507295
      5.58536585	     -2.46991500	     -5.01907982	    103.82773866	      0.19832147	      1.12275307	      0.41987729	      0.64186244	     -1.16549112	      1.53618524	      1.02041093	      0.01780953	     20.11640211	      1.23415537	      0.00000000	      6.25015907	     -0.01067367	     -1.41530788	     10.88900137	      0.19004893	     18.21308407	      8.44851517	      0.00000000	     -0.16221224	     -1.64752649	     -1.07812145	     -0.30124435	     -2.19121023	     -1.14550404	     -0.26649849	     -4.00579590	     -1.14550404	     -0.18539237	     -4.00579590	     -0.94335627	     -0.15063029	     -3.35963601	     -0.87597368	     -0.09268807	     -2.55201853	     -0.80859109	     -1.15866581	    -18.63714912	     -5.99618809	      0.00000000	      0.00000000	     -5.02001572	      9.10322110	    -31.78371128	     31.88192712	    -19.81433632	    -23.68191584	    119.13171827	     84.28970396	      1.88179592	      5.77794935	      5.83462848	    -23.49552476	    129.40579176	      4.39258011	      3.13902391	    -10.24295998	    -15.06373724
      5.60975610	     -2.67853211	     -5.01567479	    103.70709768	      0.19903566	      1.12346619	      0.41962359	      0.68786631	     -1.36343151	      1.54089782	      1.07589408	      0.01877789	     20.27641899	      1.75153724	      0.00000000	      6.10978654	      0.12451568	     -1.98526864	     10.65835815	      0.18602344	     18.40348475	      8.98884500	      0.00000000	     -0.18460412	     -1.75514735	     -1.08885505	     -0.34282831	     -2.33434597	     -1.15690849	     -0.30328610	     -4.26746526	     -1.15690849	     -0.21098405	     -4.26746526	     -0.95274817	     -0.17142338	     -3.57909647	     -0.88469473	     -0.10548279	     -2.71872324	     -0.81664129	     -1.31860875	    -19.85457781	     -6.05588515	      0.00000000	      0.00000000	     -5.86705294	      9.69005554	    -33.09301296	     34.74010459	    -21.83961206	    -22.46377612	    117.89370423	     84.84836638	      3.15382414	      5.15072798	      5.37396624	    -24.09229242	    128.40023318	      4.88915253	      3.19770903	     -9.01720883	    -14.72444389
      5.63414634	     -2.90993598	     -4.93234948	    103.66073696	      0.19939487	      1.12422643	      0.41956484	      0.63182069	     -1.58484920	      1.48181656	      1.15824888	      0.02021526	     20.34830597	      2.12970573	      0.00000000	      5.91402766	      0.28037803	     -2.51096673	     10.50215240	      0.18329714	     18.47660169	      9.62676134	      0.00000000	     -0.20734167	     -1.84767169	     -1.14656681	     -0.38505421	     -2.45740335	     -1.21822723	     -0.34064163	     -4.49242895	     -1.21822723	     -0.23697079	     -4.49242895	     -1.00324596	     -0.19253747	     -3.76777212	     -0.93158553	     -0.11847503	     -2.86204345	     -0.85992510	     -1.48102081	    -20.90123173	     -6.37686061	      0.00000000	      0.00000000	     -5.91557117	      9.75567584	    -33.40801793	     35.85230721	    -22.60033660	    -21.88563841	    115.87078897	     85.12108217	      2.82642845	      4.23849826	      4.90586038	    -24.46776628	    127.88595354	      5.35107774	      3.40100111	     -8.69704338	    -15.29700430
      5.65853659	     -2.99387128	     -4.97256342	    103.71766919	      0.19935541	      1.12462455	      0.42016233	      0.74595107	     -1.71009661	      1.37610980	      1.26419978	      0.02206445	     20.32626522	      2.24927165	      0.00000000	      6.01676111	      0.35525176	     -2.78912251	     10.59674266	      0.18494805	     18.43076243	      9.96606582	      0.00000000	     -0.22078815	     -1.91306549	     -1.17074356	     -0.41002567	     -2.54437710	     -1.24391504	     -0.36273285	     -4.65142743	     -1.24391504	     -0.25233877	     -4.65142743	     -1.02440062	     -0.20502387	     -3.90112314	     -0.95122915	     -0.12615835	     -2.96333844	     -0.87805767	     -1.57706765	    -21.64097942	     -6.51132448	      0.00000000	      0.00000000	     -5.29886079	      9.24141244	    -33.58937366	     36.47223957	    -22.40695716	    -23.25723278	    113.91763225	     85.43588825	      0.68888610	      2.68028912	      4.93101039	    -24.64988582	    128.40528974	      5.78280635	      3.93321737	     -8.58431905	    -15.97613710
